<svg width="71" height="71" viewBox="0 0 71 71" fill="none" xmlns="http://www.w3.org/2000/svg">
<circle cx="35.5" cy="35.5" r="34" stroke="#FF0000" stroke-width="3"/>
<path d="M16.7998 38.1924H13.2988V46H8.9043V24.6719H16.8291C19.3486 24.6719 21.292 25.2334 22.6592 26.3564C24.0264 27.4795 24.71 29.0664 24.71 31.1172C24.71 32.5723 24.3926 33.7881 23.7578 34.7646C23.1328 35.7314 22.1807 36.5029 20.9014 37.0791L25.5156 45.7949V46H20.7988L16.7998 38.1924ZM13.2988 34.6328H16.8438C17.9473 34.6328 18.8018 34.3545 19.4072 33.7979C20.0127 33.2314 20.3154 32.4551 20.3154 31.4688C20.3154 30.4629 20.0273 29.6719 19.4512 29.0957C18.8848 28.5195 18.0107 28.2314 16.8291 28.2314H13.2988V34.6328ZM40.8965 36.7568H32.459V42.4697H42.3613V46H28.0645V24.6719H42.332V28.2314H32.459V33.3145H40.8965V36.7568ZM44.9395 46V24.6719H51.502C53.377 24.6719 55.0518 25.0967 56.5264 25.9463C58.0107 26.7861 59.168 27.9873 59.998 29.5498C60.8281 31.1025 61.2432 32.8701 61.2432 34.8525V35.834C61.2432 37.8164 60.833 39.5791 60.0127 41.1221C59.2021 42.665 58.0547 43.8613 56.5703 44.7109C55.0859 45.5605 53.4111 45.9902 51.5459 46H44.9395ZM49.334 28.2314V42.4697H51.458C53.1768 42.4697 54.4902 41.9082 55.3984 40.7852C56.3066 39.6621 56.7705 38.0557 56.79 35.9658V34.8379C56.79 32.6699 56.3408 31.0293 55.4424 29.916C54.5439 28.793 53.2305 28.2314 51.502 28.2314H49.334Z" fill="#FF0000"/>
</svg>
